<svg xmlns="http://www.w3.org/2000/svg" xmlns:xlink="http://www.w3.org/1999/xlink" width="40" zoomAndPan="magnify" viewBox="0 0 30 30.000001" height="40" preserveAspectRatio="xMidYMid meet" version="1.0"><defs><filter x="0%" y="0%" width="100%" height="100%" id="d10b3272a5"><feColorMatrix values="0 0 0 0 1 0 0 0 0 1 0 0 0 0 1 0 0 0 1 0" color-interpolation-filters="sRGB"/></filter><mask id="e6e727f01d"><g filter="url(#d10b3272a5)"><rect x="-3" width="36" fill="#000000" y="-3" height="36.000001" fill-opacity="0.5"/></g></mask><clipPath id="c664d94ebd"><path d="M 0.933594 2 L 27.066406 2 L 27.066406 25 L 0.933594 25 Z M 0.933594 2 " clip-rule="nonzero"/></clipPath><clipPath id="109bc34653"><path d="M 3 22 L 25 22 L 25 26.582031 L 3 26.582031 Z M 3 22 " clip-rule="nonzero"/></clipPath><clipPath id="9a4d6617fd"><path d="M 10 17 L 18 17 L 18 26.582031 L 10 26.582031 Z M 10 17 " clip-rule="nonzero"/></clipPath><clipPath id="007fccc9b0"><path d="M 18 0.453125 L 22 0.453125 L 22 5 L 18 5 Z M 18 0.453125 " clip-rule="nonzero"/></clipPath><clipPath id="c0ff9162c8"><rect x="0" width="28" y="0" height="27"/></clipPath></defs><g mask="url(#e6e727f01d)"><g transform="matrix(1, 0, 0, 1, 1, 1)"><g clip-path="url(#c0ff9162c8)"><g clip-path="url(#c664d94ebd)"><path fill="#000000" d="M 2.566406 24.402344 C 2.265625 24.402344 1.972656 24.320312 1.710938 24.15625 C 0.945312 23.683594 0.707031 22.675781 1.179688 21.910156 L 12.609375 3.402344 C 12.898438 2.9375 13.414062 2.664062 14 2.664062 C 14.585938 2.664062 15.105469 2.9375 15.390625 3.402344 L 26.820312 21.910156 C 27.292969 22.675781 27.054688 23.6875 26.289062 24.160156 C 25.546875 24.621094 24.5 24.367188 24.042969 23.625 L 14 7.46875 L 3.957031 23.628906 C 3.726562 24 3.367188 24.257812 2.941406 24.359375 C 2.816406 24.386719 2.691406 24.402344 2.566406 24.402344 Z M 14 3.75 C 13.84375 3.75 13.636719 3.808594 13.539062 3.972656 L 2.105469 22.484375 C 1.945312 22.738281 2.027344 23.074219 2.28125 23.230469 C 2.40625 23.308594 2.550781 23.332031 2.695312 23.300781 C 2.835938 23.265625 2.953125 23.179688 3.03125 23.054688 L 13.539062 6.152344 C 13.738281 5.832031 14.261719 5.832031 14.460938 6.152344 L 24.96875 23.054688 C 25.121094 23.304688 25.464844 23.386719 25.714844 23.234375 C 25.972656 23.074219 26.050781 22.738281 25.894531 22.484375 L 14.460938 3.976562 C 14.363281 3.808594 14.15625 3.75 14 3.75 Z M 14 3.75 " fill-opacity="1" fill-rule="nonzero"/></g><g clip-path="url(#109bc34653)"><path fill="#000000" d="M 24.34375 26.578125 L 3.65625 26.578125 C 3.355469 26.578125 3.113281 26.335938 3.113281 26.035156 L 3.113281 23.3125 C 3.113281 23.011719 3.355469 22.769531 3.65625 22.769531 C 3.957031 22.769531 4.203125 23.011719 4.203125 23.3125 L 4.203125 25.492188 L 23.796875 25.492188 L 23.796875 23.3125 C 23.796875 23.011719 24.042969 22.769531 24.34375 22.769531 C 24.644531 22.769531 24.886719 23.011719 24.886719 23.3125 L 24.886719 26.035156 C 24.886719 26.335938 24.644531 26.578125 24.34375 26.578125 Z M 24.34375 26.578125 " fill-opacity="1" fill-rule="nonzero"/></g><g clip-path="url(#9a4d6617fd)"><path fill="#000000" d="M 16.722656 26.578125 L 11.277344 26.578125 C 10.976562 26.578125 10.734375 26.335938 10.734375 26.035156 L 10.734375 18.414062 C 10.734375 18.113281 10.976562 17.871094 11.277344 17.871094 L 16.722656 17.871094 C 17.023438 17.871094 17.265625 18.113281 17.265625 18.414062 L 17.265625 26.035156 C 17.265625 26.335938 17.023438 26.578125 16.722656 26.578125 Z M 11.824219 25.492188 L 16.175781 25.492188 L 16.175781 18.957031 L 11.824219 18.957031 Z M 11.824219 25.492188 " fill-opacity="1" fill-rule="nonzero"/></g><path fill="#000000" d="M 21.078125 14.058594 C 20.777344 14.058594 20.53125 13.816406 20.53125 13.515625 L 20.53125 6.984375 L 19.445312 6.984375 L 19.445312 9.703125 C 19.445312 10.003906 19.199219 10.25 18.898438 10.25 C 18.597656 10.25 18.355469 10.003906 18.355469 9.703125 L 18.355469 6.4375 C 18.355469 6.136719 18.597656 5.894531 18.898438 5.894531 L 21.078125 5.894531 C 21.378906 5.894531 21.621094 6.136719 21.621094 6.4375 L 21.621094 13.515625 C 21.621094 13.816406 21.378906 14.058594 21.078125 14.058594 Z M 21.078125 14.058594 " fill-opacity="1" fill-rule="nonzero"/><g clip-path="url(#007fccc9b0)"><path fill="#000000" d="M 19.988281 4.804688 C 19.890625 4.804688 19.789062 4.777344 19.699219 4.722656 C 19.191406 4.40625 18.902344 3.941406 18.902344 3.445312 C 18.902344 2.949219 19.195312 2.484375 19.699219 2.167969 C 19.878906 2.054688 19.988281 1.921875 19.988281 1.8125 C 19.988281 1.703125 19.882812 1.570312 19.703125 1.457031 C 19.449219 1.300781 19.371094 0.964844 19.53125 0.710938 C 19.691406 0.453125 20.027344 0.378906 20.277344 0.535156 C 20.785156 0.851562 21.074219 1.316406 21.074219 1.816406 C 21.074219 2.308594 20.785156 2.777344 20.277344 3.089844 C 20.097656 3.203125 19.992188 3.335938 19.992188 3.445312 C 19.992188 3.554688 20.097656 3.6875 20.277344 3.800781 C 20.53125 3.957031 20.609375 4.292969 20.449219 4.550781 C 20.347656 4.714844 20.167969 4.804688 19.988281 4.804688 Z M 19.988281 4.804688 " fill-opacity="1" fill-rule="nonzero"/></g></g></g></g></svg>