<svg xmlns="http://www.w3.org/2000/svg" xmlns:xlink="http://www.w3.org/1999/xlink" width="40" zoomAndPan="magnify" viewBox="0 0 30 30.000001" height="40" preserveAspectRatio="xMidYMid meet" version="1.0"><defs><filter x="0%" y="0%" width="100%" height="100%" id="a6eead8ab5"><feColorMatrix values="0 0 0 0 1 0 0 0 0 1 0 0 0 0 1 0 0 0 1 0" color-interpolation-filters="sRGB"/></filter><clipPath id="5e5b962d74"><path d="M 0.484375 4 L 29.515625 4 L 29.515625 26 L 0.484375 26 Z M 0.484375 4 " clip-rule="nonzero"/></clipPath><mask id="109c38ad9d"><g filter="url(#a6eead8ab5)"><rect x="-3" width="36" fill="#000000" y="-3" height="36.000001" fill-opacity="0.5"/></g></mask><clipPath id="eb444df5d9"><path d="M 0.9375 0.707031 L 29.242188 0.707031 L 29.242188 20.304688 L 0.9375 20.304688 Z M 0.9375 0.707031 " clip-rule="nonzero"/></clipPath><clipPath id="7498e4034f"><rect x="0" width="30" y="0" height="22"/></clipPath></defs><g clip-path="url(#5e5b962d74)"><g mask="url(#109c38ad9d)"><g transform="matrix(1, 0, 0, 1, 0, 4)"><g clip-path="url(#7498e4034f)"><g clip-path="url(#eb444df5d9)"><path fill="#000000" d="M 28.75 17.050781 L 28.75 12.863281 C 28.75 12.835938 28.746094 12.800781 28.738281 12.769531 C 28.738281 12.757812 28.734375 12.75 28.730469 12.742188 C 28.730469 12.738281 28.730469 12.734375 28.730469 12.730469 L 28.726562 12.714844 C 28.726562 12.710938 28.726562 12.710938 28.726562 12.707031 L 27.894531 9.4375 L 27.441406 7.648438 L 27.433594 7.628906 C 27.433594 7.621094 27.425781 7.613281 27.425781 7.609375 C 27.421875 7.582031 27.410156 7.554688 27.394531 7.527344 C 27.394531 7.527344 27.394531 7.523438 27.394531 7.523438 C 27.390625 7.515625 27.382812 7.507812 27.378906 7.496094 C 27.371094 7.488281 27.367188 7.472656 27.363281 7.464844 C 27.351562 7.445312 27.339844 7.429688 27.324219 7.414062 C 27.324219 7.414062 27.324219 7.410156 27.324219 7.410156 L 23.675781 3.136719 C 23.671875 3.128906 23.664062 3.121094 23.65625 3.117188 C 23.648438 3.109375 23.640625 3.097656 23.632812 3.089844 C 23.625 3.085938 23.617188 3.078125 23.609375 3.070312 C 23.59375 3.0625 23.585938 3.050781 23.570312 3.042969 C 23.566406 3.035156 23.554688 3.03125 23.546875 3.027344 C 23.542969 3.023438 23.539062 3.019531 23.53125 3.015625 C 23.523438 3.011719 23.519531 3.011719 23.515625 3.007812 C 23.503906 3 23.492188 2.992188 23.480469 2.992188 L 18.214844 0.738281 C 18.148438 0.707031 18.074219 0.695312 18 0.695312 L 12.148438 0.695312 C 12.074219 0.695312 12.003906 0.707031 11.933594 0.738281 L 6.667969 2.992188 C 6.660156 2.992188 6.648438 3.003906 6.640625 3.007812 C 6.632812 3.011719 6.628906 3.011719 6.621094 3.015625 C 6.617188 3.019531 6.613281 3.023438 6.605469 3.027344 C 6.597656 3.03125 6.589844 3.039062 6.582031 3.042969 C 6.566406 3.050781 6.558594 3.0625 6.542969 3.070312 C 6.535156 3.078125 6.527344 3.085938 6.519531 3.089844 C 6.511719 3.097656 6.503906 3.109375 6.496094 3.117188 C 6.488281 3.121094 6.480469 3.128906 6.476562 3.136719 L 2.828125 7.414062 C 2.828125 7.414062 2.828125 7.414062 2.824219 7.414062 C 2.8125 7.433594 2.796875 7.445312 2.789062 7.464844 C 2.78125 7.476562 2.773438 7.488281 2.769531 7.5 C 2.765625 7.511719 2.761719 7.515625 2.757812 7.527344 C 2.757812 7.53125 2.757812 7.53125 2.753906 7.535156 C 2.738281 7.558594 2.734375 7.585938 2.722656 7.613281 C 2.71875 7.617188 2.714844 7.625 2.714844 7.632812 L 2.710938 7.65625 L 1.414062 12.726562 C 1.414062 12.730469 1.414062 12.738281 1.410156 12.742188 C 1.40625 12.773438 1.402344 12.800781 1.402344 12.832031 C 1.402344 12.84375 1.398438 12.851562 1.398438 12.863281 L 1.398438 17.050781 C 1.136719 17.089844 0.933594 17.3125 0.933594 17.585938 L 0.933594 19.742188 C 0.933594 20.039062 1.175781 20.285156 1.476562 20.285156 L 28.667969 20.285156 C 28.964844 20.285156 29.210938 20.039062 29.210938 19.742188 L 29.210938 17.585938 C 29.214844 17.316406 29.007812 17.09375 28.75 17.050781 Z M 22.335938 4.027344 L 20.546875 7.21875 L 17.792969 7.21875 L 17.425781 6.855469 C 17.324219 6.753906 17.1875 6.699219 17.042969 6.699219 L 13.101562 6.699219 C 12.957031 6.699219 12.816406 6.753906 12.714844 6.855469 L 12.347656 7.21875 L 9.597656 7.21875 L 7.8125 4.027344 Z M 27.65625 17.046875 L 27.3125 17.046875 L 24.894531 13.402344 L 27.660156 13.402344 L 27.660156 17.046875 Z M 15.726562 17.046875 L 15.617188 17.046875 L 15.617188 7.785156 L 16.820312 7.785156 L 16.933594 7.898438 L 17.34375 8.304688 L 18.242188 9.195312 L 18.242188 17.046875 Z M 19.171875 8.589844 L 18.882812 8.304688 L 19.917969 8.304688 L 19.332031 9.289062 L 19.332031 8.972656 C 19.332031 8.824219 19.273438 8.691406 19.171875 8.589844 Z M 19.332031 13.402344 L 22.875 13.402344 L 20.863281 16.433594 L 19.332031 14.121094 Z M 19.332031 12.324219 L 19.332031 11.417969 L 20.863281 8.828125 L 22.933594 12.328125 L 19.332031 12.328125 Z M 13.777344 14.660156 C 13.625 14.886719 13.460938 15.097656 13.261719 15.296875 C 13.1875 15.371094 13.105469 15.441406 13.023438 15.511719 C 12.988281 15.542969 12.953125 15.582031 12.914062 15.613281 L 12.582031 15.886719 L 11.902344 16.445312 L 11.902344 9.195312 L 12.800781 8.300781 L 13.207031 7.894531 L 13.324219 7.78125 L 14.53125 7.78125 L 14.53125 12.21875 C 14.53125 12.253906 14.527344 12.285156 14.523438 12.324219 C 14.511719 12.695312 14.457031 13.054688 14.359375 13.402344 C 14.265625 13.742188 14.128906 14.070312 13.957031 14.378906 C 13.898438 14.476562 13.839844 14.570312 13.777344 14.660156 Z M 11.261719 8.300781 L 10.96875 8.585938 C 10.867188 8.6875 10.808594 8.824219 10.808594 8.96875 L 10.808594 9.285156 L 10.226562 8.300781 Z M 9.277344 8.824219 L 10.8125 11.417969 L 10.8125 12.320312 L 7.210938 12.320312 Z M 10.8125 13.402344 L 10.8125 14.121094 L 9.277344 16.433594 L 7.269531 13.402344 Z M 10.8125 16.085938 L 10.8125 17.046875 L 10.175781 17.046875 Z M 13.601562 16.453125 L 13.605469 16.449219 C 13.699219 16.375 13.785156 16.292969 13.875 16.214844 C 14.0625 16.042969 14.234375 15.859375 14.390625 15.664062 C 14.4375 15.605469 14.484375 15.542969 14.53125 15.484375 L 14.53125 17.046875 L 12.871094 17.046875 Z M 19.332031 16.085938 L 19.96875 17.046875 L 19.332031 17.046875 Z M 23.886719 13.84375 L 26.011719 17.046875 L 21.765625 17.046875 Z M 24.835938 12.324219 L 26.699219 9.171875 L 27.5 12.324219 Z M 23.886719 11.796875 L 21.820312 8.300781 L 25.960938 8.300781 Z M 8.332031 8.300781 L 6.261719 11.796875 L 4.195312 8.300781 Z M 3.441406 9.167969 L 5.308594 12.320312 L 2.640625 12.320312 Z M 6.257812 13.84375 L 8.382812 17.046875 L 4.136719 17.046875 Z M 2.484375 13.402344 L 5.25 13.402344 L 2.835938 17.046875 L 2.484375 17.046875 Z M 21.792969 7.21875 L 23.355469 4.429688 L 25.730469 7.21875 Z M 9.515625 2.945312 L 12.261719 1.769531 L 17.882812 1.769531 L 20.625 2.945312 Z M 6.792969 4.429688 L 8.355469 7.21875 L 4.414062 7.21875 Z M 2.023438 18.125 L 28.125 18.125 L 28.125 19.203125 L 2.023438 19.203125 Z M 2.023438 18.125 " fill-opacity="1" fill-rule="nonzero"/></g></g></g></g></g></svg>