<svg xmlns="http://www.w3.org/2000/svg" xmlns:xlink="http://www.w3.org/1999/xlink" width="40" zoomAndPan="magnify" viewBox="0 0 30 30.000001" height="40" preserveAspectRatio="xMidYMid meet" version="1.0"><defs><filter x="0%" y="0%" width="100%" height="100%" id="3092be6d54"><feColorMatrix values="0 0 0 0 1 0 0 0 0 1 0 0 0 0 1 0 0 0 1 0" color-interpolation-filters="sRGB"/></filter><clipPath id="23c3aef0c3"><path d="M 0.484375 1 L 29.515625 1 L 29.515625 28 L 0.484375 28 Z M 0.484375 1 " clip-rule="nonzero"/></clipPath><mask id="651d9ffe27"><g filter="url(#3092be6d54)"><rect x="-3" width="36" fill="#000000" y="-3" height="36.000001" fill-opacity="0.5"/></g></mask><clipPath id="650dbb5a0f"><path d="M 0.714844 0.511719 L 29 0.511719 L 29 26.640625 L 0.714844 26.640625 Z M 0.714844 0.511719 " clip-rule="nonzero"/></clipPath><clipPath id="70e17cbec0"><rect x="0" width="30" y="0" height="27"/></clipPath></defs><g clip-path="url(#23c3aef0c3)"><g mask="url(#651d9ffe27)"><g transform="matrix(1, 0, 0, 1, 0, 1)"><g clip-path="url(#70e17cbec0)"><g clip-path="url(#650dbb5a0f)"><path fill="#000000" d="M 25.839844 13.527344 C 25.839844 14.039062 25.839844 14.554688 25.839844 15.066406 C 25.839844 18.625 25.839844 22.191406 25.839844 25.75 C 25.839844 26.164062 25.488281 26.515625 25.074219 26.515625 C 24.246094 26.515625 23.417969 26.515625 22.589844 26.515625 C 16.703125 26.515625 10.808594 26.515625 4.917969 26.515625 C 4.503906 26.515625 4.15625 26.164062 4.15625 25.75 C 4.15625 25.238281 4.15625 24.722656 4.15625 24.210938 C 4.15625 20.652344 4.15625 17.085938 4.15625 13.527344 C 4.15625 12.535156 5.683594 12.542969 5.683594 13.527344 C 5.683594 14.039062 5.683594 14.554688 5.683594 15.066406 C 5.683594 18.375 5.683594 21.679688 5.683594 24.988281 C 6.261719 24.988281 6.828125 24.988281 7.402344 24.988281 C 13.039062 24.988281 18.675781 24.988281 24.3125 24.988281 C 24.3125 24.726562 24.3125 24.46875 24.3125 24.210938 C 24.3125 20.652344 24.3125 17.085938 24.3125 13.527344 C 24.3125 12.542969 25.839844 12.542969 25.839844 13.527344 Z M 28.679688 12.703125 C 24.835938 9.222656 20.992188 5.75 17.152344 2.277344 C 16.605469 1.78125 16.066406 1.292969 15.519531 0.800781 C 15.203125 0.511719 14.753906 0.511719 14.4375 0.800781 C 10.578125 4.277344 6.71875 7.753906 2.859375 11.226562 C 2.316406 11.71875 1.769531 12.207031 1.222656 12.703125 C 0.484375 13.363281 1.574219 14.445312 2.304688 13.785156 C 6.160156 10.3125 10.015625 6.835938 13.875 3.363281 C 14.242188 3.035156 14.605469 2.707031 14.972656 2.375 C 18.636719 5.6875 22.296875 9 25.960938 12.304688 C 26.507812 12.800781 27.046875 13.289062 27.59375 13.785156 C 28.324219 14.441406 29.410156 13.363281 28.679688 12.703125 Z M 22.804688 4.933594 C 22.804688 4.628906 22.804688 4.332031 22.804688 4.027344 C 23.425781 4.027344 24.046875 4.027344 24.667969 4.027344 C 24.667969 5.394531 24.667969 6.761719 24.667969 8.132812 C 24.667969 9.113281 26.195312 9.121094 26.195312 8.132812 C 26.195312 6.511719 26.195312 4.886719 26.195312 3.261719 C 26.195312 2.847656 25.847656 2.496094 25.433594 2.496094 C 24.300781 2.496094 23.171875 2.496094 22.039062 2.496094 C 21.625 2.496094 21.273438 2.847656 21.273438 3.261719 C 21.273438 3.820312 21.273438 4.375 21.273438 4.933594 C 21.269531 5.921875 22.804688 5.921875 22.804688 4.933594 Z M 22.804688 4.933594 " fill-opacity="1" fill-rule="nonzero"/></g></g></g></g></g></svg>