<?xml version="1.0" encoding="utf-8"?>
<!-- Generator: Adobe Illustrator 26.3.1, SVG Export Plug-In . SVG Version: 6.00 Build 0)  -->
<svg version="1.1" id="Layer_1" xmlns="http://www.w3.org/2000/svg" xmlns:xlink="http://www.w3.org/1999/xlink" x="0px" y="0px"
	 viewBox="0 0 1024 1024" style="enable-background:new 0 0 1024 1024;" xml:space="preserve">
<style type="text/css">
	.st0{fill:#26A6E5;}
	.st1{fill:#FFFFFF;}
</style>
<rect x="0" class="st0" width="1024" height="1024"/>
<path class="st1" d="M780.6,546.52H243.4v246.03c0,19.03,15.42,34.45,34.45,34.45h468.29c19.03,0,34.45-15.42,34.45-34.45V546.52z"
	/>
<path class="st1" d="M836.13,548.61H187.87c-19.99,0-29.99-24.16-15.86-38.29l324.13-324.13c8.76-8.76,22.96-8.76,31.72,0
	l324.13,324.13C866.12,524.45,856.12,548.61,836.13,548.61z"/>
<g>
	<path class="st0" d="M537.62,393h40.25c7.28,0,13.19-5.9,13.19-13.19v-40.25c0-7.28-5.9-13.19-13.19-13.19h-40.25
		c-7.28,0-13.19,5.9-13.19,13.19v40.25C524.43,387.1,530.34,393,537.62,393z"/>
	<path class="st0" d="M499.57,379.81v-40.25c0-7.28-5.9-13.19-13.19-13.19h-40.25c-7.28,0-13.19,5.9-13.19,13.19v40.25
		c0,7.28,5.9,13.19,13.19,13.19h40.25C493.66,393,499.57,387.1,499.57,379.81z"/>
	<path class="st0" d="M486.38,417.86h-40.25c-7.28,0-13.19,5.9-13.19,13.19v40.25c0,7.28,5.9,13.19,13.19,13.19h40.25
		c7.28,0,13.19-5.9,13.19-13.19v-40.25C499.57,423.77,493.66,417.86,486.38,417.86z"/>
	<path class="st0" d="M524.43,431.05v40.25c0,7.28,5.9,13.19,13.19,13.19h40.25c7.28,0,13.19-5.9,13.19-13.19v-40.25
		c0-7.28-5.9-13.19-13.19-13.19h-40.25C530.34,417.86,524.43,423.77,524.43,431.05z"/>
</g>
<g>
	<g>
		<path class="st0" d="M491.47,834.88H300.89v-59.8l107.17-124.49c9.35-11.15,12.2-17.56,12.2-27.41c0-9.36-3.1-25.06-23.88-25.06
			c-16.11,0-24.27,8.7-24.27,25.85v10h-71.21v-10c0-54.13,39.27-91.94,95.49-91.94c27.29,0,50.8,8.49,67.99,24.56
			c17.73,16.57,27.1,39.74,27.1,66.99c0,30.79-12.81,48-32.36,70.73l-64.17,74.48h96.52V834.88z"/>
	</g>
	<g>
		<path class="st0" d="M687.66,834.88h-69.24v-39.79H503.78v-60.82l99.94-199.89h78.3L585.9,726.63h32.52v-52.4h69.24v52.4h25.61
			v68.46h-25.61V834.88z"/>
	</g>
</g>
</svg>
